# xmcd
#
# Track frame offsets:
#	150
#	13545
#	29700
#	45652
#	60437
#	73792
#	86190
#	98750
#	113013
#	124379
#	137945
#	150060
#	163637
#	177828
#	191256
#
# Disc length: 2723 seconds
#
# Revision: 1
# Processed by: cddbd v1.5.1PL0 Copyright (c) Steve Scherf et al.
# Submitted via: audiograbber 1.82.02
#
DISCID=c20aa10f
DTITLE=Various Artist - ChartBusters 60093
DYEAR=1900
DGENRE=Karaoke
TTITLE0=Johnny Russell - Rednecks, white sox and blue ribbon beer
TTITLE1=John Conlee - Rose colered glasses
TTITLE2=Donna Fargo - You can't be a beacon
TTITLE3=Billy Swan - I can help
TTITLE4=Ronnie Milsap - Please don't tell me how the story ends
TTITLE5=Loretta Lynn - Love is the foundation
TTITLE6=Billy "Crash" Craddock - Rub it in
TTITLE7=Waylon Jennings - I'm a ramblin' man
TTITLE8=Tanya Tucker - Would you lay with me
TTITLE9=Conway Twitty - She needs someone to hold her when she cries
TTITLE10=Freddie Hart - Easy Lovin'
TTITLE11=Anne Murray - He thinks I still care
TTITLE12=Roy Clark - Come live with me
TTITLE13=Tammy Wynette - Another lonely song
TTITLE14=Buck Owens - Made in Japan
EXTD=
EXTT0=
EXTT1=
EXTT2=
EXTT3=
EXTT4=
EXTT5=
EXTT6=
EXTT7=
EXTT8=
EXTT9=
EXTT10=
EXTT11=
EXTT12=
EXTT13=
EXTT14=
PLAYORDER=
